<?xml version="1.0" encoding="utf-8" standalone="no"?>
<!DOCTYPE svg PUBLIC "-//W3C//DTD SVG 1.1//EN"
  "http://www.w3.org/Graphics/SVG/1.1/DTD/svg11.dtd">
<svg xmlns:xlink="http://www.w3.org/1999/xlink" width="980.39952pt" height="408.249776pt" viewBox="0 0 980.39952 408.249776" xmlns="http://www.w3.org/2000/svg" version="1.1">
 <metadata>
  <rdf:RDF xmlns:dc="http://purl.org/dc/elements/1.1/" xmlns:cc="http://creativecommons.org/ns#" xmlns:rdf="http://www.w3.org/1999/02/22-rdf-syntax-ns#">
   <cc:Work>
    <dc:type rdf:resource="http://purl.org/dc/dcmitype/StillImage"/>
    <dc:date>2026-05-01T15:08:10.897081</dc:date>
    <dc:format>image/svg+xml</dc:format>
    <dc:creator>
     <cc:Agent>
      <dc:title>Matplotlib v3.10.0, https://matplotlib.org/</dc:title>
     </cc:Agent>
    </dc:creator>
   </cc:Work>
  </rdf:RDF>
 </metadata>
 <defs>
  <style type="text/css">*{stroke-linejoin: round; stroke-linecap: butt}</style>
 </defs>
 <g id="figure_1">
  <g id="patch_1">
   <path d="M 0 408.249776 
L 980.39952 408.249776 
L 980.39952 0 
L 0 0 
z
" style="fill: #fbfbf8"/>
  </g>
  <g id="axes_1">
   <g id="patch_2">
    <path d="M 36.179986 168.55899 
L 200.399904 168.55899 
Q 217.787895 168.55899 217.787895 161.927798 
L 217.787895 80.879904 
Q 217.787895 74.248713 200.399904 74.248713 
L 36.179986 74.248713 
Q 18.791994 74.248713 18.791994 80.879904 
L 18.791994 161.927798 
Q 18.791994 168.55899 36.179986 168.55899 
z
" clip-path="url(#p3d18666031)" style="fill: #d8dee8; stroke: #5c6674; stroke-width: 1.2; stroke-linejoin: miter"/>
   </g>
   <g id="patch_3">
    <path d="M 287.339861 153.823009 
L 461.219774 153.823009 
Q 478.607766 153.823009 478.607766 147.191818 
L 478.607766 55.091938 
Q 478.607766 48.460746 461.219774 48.460746 
L 287.339861 48.460746 
Q 269.951869 48.460746 269.951869 55.091938 
L 269.951869 147.191818 
Q 269.951869 153.823009 287.339861 153.823009 
z
" clip-path="url(#p3d18666031)" style="fill: #e7eef7; stroke: #5c6674; stroke-width: 1.2; stroke-linejoin: miter"/>
   </g>
   <g id="patch_4">
    <path d="M 528.839741 153.823009 
L 702.719654 153.823009 
Q 720.107646 153.823009 720.107646 147.191818 
L 720.107646 55.091938 
Q 720.107646 48.460746 702.719654 48.460746 
L 528.839741 48.460746 
Q 511.451749 48.460746 511.451749 55.091938 
L 511.451749 147.191818 
Q 511.451749 153.823009 528.839741 153.823009 
z
" clip-path="url(#p3d18666031)" style="fill: #e8f2ec; stroke: #5c6674; stroke-width: 1.2; stroke-linejoin: miter"/>
   </g>
   <g id="patch_5">
    <path d="M 770.339621 153.823009 
L 944.219534 153.823009 
Q 961.607526 153.823009 961.607526 147.191818 
L 961.607526 55.091938 
Q 961.607526 48.460746 944.219534 48.460746 
L 770.339621 48.460746 
Q 752.951629 48.460746 752.951629 55.091938 
L 752.951629 147.191818 
Q 752.951629 153.823009 770.339621 153.823009 
z
" clip-path="url(#p3d18666031)" style="fill: #f7ede2; stroke: #5c6674; stroke-width: 1.2; stroke-linejoin: miter"/>
   </g>
   <g id="patch_6">
    <path d="M 374.279818 330.654779 
L 606.119702 330.654779 
Q 623.507694 330.654779 623.507694 324.023587 
L 623.507694 242.975693 
Q 623.507694 236.344501 606.119702 236.344501 
L 374.279818 236.344501 
Q 356.891826 236.344501 356.891826 242.975693 
L 356.891826 324.023587 
Q 356.891826 330.654779 374.279818 330.654779 
z
" clip-path="url(#p3d18666031)" style="fill: #efeaf7; stroke: #5c6674; stroke-width: 1.2; stroke-linejoin: miter"/>
   </g>
   <g id="patch_7">
    <path d="M 202.35531 120.989559 
Q 243.868531 112.19415 284.069246 103.676821 
" clip-path="url(#p3d18666031)" style="fill: none; stroke: #4d5562; stroke-width: 1.2; stroke-linecap: round"/>
    <path d="M 277.144967 101.872834 
L 284.069246 103.676821 
L 278.471489 108.133852 
z
" clip-path="url(#p3d18666031)" style="fill: #4d5562; stroke: #4d5562; stroke-width: 1.2; stroke-linecap: round"/>
   </g>
   <g id="patch_8">
    <path d="M 463.221464 102.983875 
Q 495.03135 102.983875 525.499594 102.983875 
" clip-path="url(#p3d18666031)" style="fill: none; stroke: #4d5562; stroke-width: 1.2; stroke-linecap: round"/>
    <path d="M 519.099594 99.783875 
L 525.499594 102.983875 
L 519.099594 106.183875 
z
" clip-path="url(#p3d18666031)" style="fill: #4d5562; stroke: #4d5562; stroke-width: 1.2; stroke-linecap: round"/>
   </g>
   <g id="patch_9">
    <path d="M 704.721344 102.983875 
Q 736.53123 102.983875 766.999474 102.983875 
" clip-path="url(#p3d18666031)" style="fill: none; stroke: #4d5562; stroke-width: 1.2; stroke-linecap: round"/>
    <path d="M 760.599474 99.783875 
L 766.999474 102.983875 
L 760.599474 106.183875 
z
" clip-path="url(#p3d18666031)" style="fill: #4d5562; stroke: #4d5562; stroke-width: 1.2; stroke-linecap: round"/>
   </g>
   <g id="patch_10">
    <path d="M 375.433369 148.825826 
Q 408.089498 195.083327 439.971866 240.244792 
" clip-path="url(#p3d18666031)" style="fill: none; stroke: #4d5562; stroke-width: 1.2; stroke-linecap: round"/>
    <path d="M 438.895006 233.17087 
L 439.971866 240.244792 
L 433.666612 236.861927 
z
" clip-path="url(#p3d18666031)" style="fill: #4d5562; stroke: #4d5562; stroke-width: 1.2; stroke-linecap: round"/>
   </g>
   <g id="patch_11">
    <path d="M 614.291254 148.533517 
Q 562.648891 195.084506 512.003063 240.737208 
" clip-path="url(#p3d18666031)" style="fill: none; stroke: #4d5562; stroke-width: 1.2; stroke-linecap: round"/>
    <path d="M 518.899348 238.829002 
L 512.003063 240.737208 
L 514.61427 234.075256 
z
" clip-path="url(#p3d18666031)" style="fill: #4d5562; stroke: #4d5562; stroke-width: 1.2; stroke-linecap: round"/>
   </g>
   <g id="patch_12">
    <path d="M 855.451525 147.99623 
Q 731.700596 202.451325 609.177675 256.36605 
" clip-path="url(#p3d18666031)" style="fill: none; stroke: #4d5562; stroke-width: 1.2; stroke-linecap: round"/>
    <path d="M 616.324465 256.717304 
L 609.177675 256.36605 
L 613.746752 250.85937 
z
" clip-path="url(#p3d18666031)" style="fill: #4d5562; stroke: #4d5562; stroke-width: 1.2; stroke-linecap: round"/>
   </g>
   <g id="text_1">
    <text style="font-size: 11px; font-family: 'Microsoft YaHei', 'DejaVu Sans', sans-serif; fill: #1f2933" transform="translate(85.289945 108.948586)">原始需求张量</text>
    <text style="font-size: 11px; font-family: 'Microsoft YaHei', 'DejaVu Sans', sans-serif; fill: #1f2933" transform="translate(93.154945 124.433148)">附件1.xlsx</text>
    <text style="font-size: 11px; font-family: 'Microsoft YaHei', 'DejaVu Sans', sans-serif; fill: #1f2933" transform="translate(62.269007 139.917711)">10天 × 10组 × 11小时</text>
   </g>
   <g id="text_2">
    <text style="font-size: 11px; font-family: 'Microsoft YaHei', 'DejaVu Sans', sans-serif; fill: #1f2933" transform="translate(357.779818 80.944331)">问题一</text>
    <text style="font-size: 11px; font-family: 'Microsoft YaHei', 'DejaVu Sans', sans-serif; fill: #1f2933" transform="translate(341.279818 96.428893)">固定小组服务</text>
    <text style="font-size: 11px; font-family: 'Microsoft YaHei', 'DejaVu Sans', sans-serif; fill: #1f2933" transform="translate(328.445052 111.913456)">列生成 + 整数恢复</text>
    <text style="font-size: 11px; font-family: 'Microsoft YaHei', 'DejaVu Sans', sans-serif; fill: #1f2933" transform="translate(359.104114 127.398018)">417人</text>
   </g>
   <g id="text_3">
    <text style="font-size: 11px; font-family: 'Microsoft YaHei', 'DejaVu Sans', sans-serif; fill: #1f2933" transform="translate(599.279698 80.944331)">问题二</text>
    <text style="font-size: 11px; font-family: 'Microsoft YaHei', 'DejaVu Sans', sans-serif; fill: #1f2933" transform="translate(588.279698 96.428893)">跨日可换组</text>
    <text style="font-size: 11px; font-family: 'Microsoft YaHei', 'DejaVu Sans', sans-serif; fill: #1f2933" transform="translate(569.944932 111.913456)">单日下界 + 最大流</text>
    <text style="font-size: 11px; font-family: 'Microsoft YaHei', 'DejaVu Sans', sans-serif; fill: #1f2933" transform="translate(582.269229 127.398018)">406人 = 下界</text>
   </g>
   <g id="text_4">
    <text style="font-size: 11px; font-family: 'Microsoft YaHei', 'DejaVu Sans', sans-serif; fill: #1f2933" transform="translate(840.779578 80.944331)">问题三</text>
    <text style="font-size: 11px; font-family: 'Microsoft YaHei', 'DejaVu Sans', sans-serif; fill: #1f2933" transform="translate(824.279578 96.428893)">日内双组服务</text>
    <text style="font-size: 11px; font-family: 'Microsoft YaHei', 'DejaVu Sans', sans-serif; fill: #1f2933" transform="translate(800.772234 111.913456)">下界 + 最大流 + ALNS</text>
    <text style="font-size: 11px; font-family: 'Microsoft YaHei', 'DejaVu Sans', sans-serif; fill: #1f2933" transform="translate(823.769109 127.398018)">400人 = 下界</text>
   </g>
   <g id="text_5">
    <text style="font-size: 11px; font-family: 'Microsoft YaHei', 'DejaVu Sans', sans-serif; fill: #1f2933" transform="translate(462.69976 263.302093)">可复现验证</text>
    <text style="font-size: 11px; font-family: 'Microsoft YaHei', 'DejaVu Sans', sans-serif; fill: #1f2933" transform="translate(460.895072 278.786656)">覆盖缺口=0</text>
    <text style="font-size: 11px; font-family: 'Microsoft YaHei', 'DejaVu Sans', sans-serif; fill: #1f2933" transform="translate(459.474526 294.271218)">每人工作8天</text>
    <text style="font-size: 11px; font-family: 'Microsoft YaHei', 'DejaVu Sans', sans-serif; fill: #1f2933" transform="translate(446.19976 309.755781)">独立链路审计通过</text>
   </g>
   <g id="text_6">
    <text style="font-weight: 700; font-size: 15px; font-family: 'Microsoft YaHei', 'DejaVu Sans', sans-serif; text-anchor: middle; fill: #1f2933" x="490.19976" y="25.619976" transform="rotate(-0 490.19976 25.619976)">独立高级模型求解链路与论文证据闭环</text>
   </g>
   <g id="text_7">
    <text style="font-size: 11px; font-family: 'Microsoft YaHei', 'DejaVu Sans', sans-serif; text-anchor: middle; fill: #4d5562" x="490.19976" y="198.76775" transform="rotate(-0 490.19976 198.76775)">流动约束逐步放宽：固定小组 → 跨日换组 → 日内双组</text>
   </g>
  </g>
  <g id="text_8">
   <text style="font-size: 8.5px; font-family: 'Microsoft YaHei', 'DejaVu Sans', sans-serif; text-anchor: start; fill: #4d5562" x="13.91976" y="398.879619" transform="rotate(-0 13.91976 398.879619)">数据来源：independent_advanced_summary.json；图中人数均由独立高级脚本重新求解得到。</text>
  </g>
 </g>
 <defs>
  <clipPath id="p3d18666031">
   <rect x="7.2" y="7.2" width="965.99952" height="368.39952"/>
  </clipPath>
 </defs>
</svg>
